<svg xmlns="http://www.w3.org/2000/svg" width="16" height="16" viewBox="0 0 16 16">
  <g id="그룹_17301" data-name="그룹 17301" transform="translate(-115 -321)">
    <circle id="타원_9422" data-name="타원 9422" cx="8" cy="8" r="8" transform="translate(115 321)" fill="#8998cb"/>
    <g id="phone-call" transform="translate(119.5 325.04)">
      <path id="phone-call-2" data-name="phone-call" d="M9.479,7.052V8.165a.741.741,0,0,1-.808.741,7.327,7.327,0,0,1-3.2-1.138A7.226,7.226,0,0,1,3.252,5.544,7.34,7.34,0,0,1,2.115,2.329a.741.741,0,0,1,.737-.808H3.963a.741.741,0,0,1,.741.638A4.763,4.763,0,0,0,4.963,3.2a.742.742,0,0,1-.167.782l-.47.471A5.929,5.929,0,0,0,6.549,6.678l.47-.471A.74.74,0,0,1,7.8,6.04a4.753,4.753,0,0,0,1.041.26.741.741,0,0,1,.637.753Z" transform="translate(-2.112 -1.521)" fill="none" stroke="#fff" stroke-linecap="round" stroke-linejoin="round" stroke-width="0.8"/>
    </g>
  </g>
</svg>
