<svg xmlns="http://www.w3.org/2000/svg" width="24.149" height="22.546" viewBox="0 0 24.149 22.546">
  <g id="그룹_17336" data-name="그룹 17336" transform="translate(-1779.75 -927.75)">
    <path id="패스_9786" data-name="패스 9786" d="M23.557,3.609c-.008-.021-.016-.043-.026-.067l0-.008-.011-.024,0,0c-.014-.032-.03-.064-.049-.1s-.027-.048-.037-.064c-.019-.032-.04-.063-.061-.093l-.043-.058a1.512,1.512,0,0,0-1.2-.581H19.838q-.049-.038-.1-.074a13.631,13.631,0,0,0-15.829,0q-.05.036-.1.074H1.52A1.522,1.522,0,0,0,0,4.131q0,.011,0,.021l.851,16.39a1.522,1.522,0,0,0,1.52,1.509H21.278a1.522,1.522,0,0,0,1.52-1.509l.851-16.39c0-.007,0-.014,0-.021a1.513,1.513,0,0,0-.092-.522m-1.569,16.9q0,.01,0,.021a.71.71,0,0,1-.709.71H2.371a.71.71,0,0,1-.709-.71q0-.011,0-.021L.811,4.122a.71.71,0,0,1,.709-.7H3.958a.405.405,0,0,0,.268-.1A1.923,1.923,0,0,1,4.381,3.2a12.821,12.821,0,0,1,14.887,0,1.92,1.92,0,0,1,.155.123.405.405,0,0,0,.268.1h2.438a.706.706,0,0,1,.558.271l.021.028,0,0c.009.013.018.026.026.039l.017.03c.009.017.016.032.023.045l.008.019.012.031a.705.705,0,0,1,.043.234Z" transform="translate(1780 927.996)" fill="#fff" stroke="#fff" stroke-width="0.5"/>
    <path id="패스_9787" data-name="패스 9787" d="M231.928,82.235a12.01,12.01,0,0,0-13.945,0,1.067,1.067,0,0,0-.253,1.475l2.832,4.044a1.064,1.064,0,0,0,.871.453,1.057,1.057,0,0,0,.624-.2,4.944,4.944,0,0,1,5.8,0,1.063,1.063,0,0,0,.8.188,1.07,1.07,0,0,0,.695-.439l2.832-4.044a1.067,1.067,0,0,0-.253-1.475m-.411,1.01-2.832,4.044a.253.253,0,0,1-.356.06,5.708,5.708,0,0,0-3.121-1.087V83.408a.253.253,0,1,0-.507,0v2.854a5.706,5.706,0,0,0-3.121,1.087.253.253,0,0,1-.356-.06l-2.832-4.044a.254.254,0,0,1,.06-.351,11.233,11.233,0,0,1,1.575-.941l.759,1.344a.253.253,0,1,0,.441-.249l-.739-1.309a11.057,11.057,0,0,1,1.813-.61l.4,1.517a.253.253,0,1,0,.49-.13l-.4-1.5a11.261,11.261,0,0,1,1.9-.2v1.426a.253.253,0,1,0,.507,0V80.818a11.262,11.262,0,0,1,1.9.2l-.4,1.5a.253.253,0,1,0,.49.13l.4-1.517a11.059,11.059,0,0,1,1.813.61l-.739,1.309a.253.253,0,1,0,.441.249l.759-1.344a11.234,11.234,0,0,1,1.575.941.254.254,0,0,1,.06.351" transform="translate(1566.869 850.617)" fill="#fff" stroke="#fff" stroke-width="0.3"/>
  </g>
</svg>
