<svg xmlns="http://www.w3.org/2000/svg" xmlns:xlink="http://www.w3.org/1999/xlink" width="180.26" height="26" viewBox="0 0 180.26 26">
  <defs>
    <clipPath id="clip-path">
      <rect id="사각형_17069" data-name="사각형 17069" width="180.26" height="26" fill="none"/>
    </clipPath>
  </defs>
  <g id="그룹_17253" data-name="그룹 17253" clip-path="url(#clip-path)">
    <path id="패스_9729" data-name="패스 9729" d="M0,14.2H24.44v2.18H14.077V24.16a1.418,1.418,0,0,1-1.13,1.4l-2.664.566V16.382H0Zm5.437-3.472A2.225,2.225,0,0,1,3.176,8.469V1.578L1.912,1.2V.367H6.084A.907.907,0,0,1,7,1.282V8.118a.392.392,0,0,0,.4.377H21.856v2.234Z" transform="translate(0 -0.125)" fill="#0c2b64"/>
    <path id="패스_9730" data-name="패스 9730" d="M50.376,9.663h2.773V1.669l-1.1-.3V.511h3.688a.92.92,0,0,1,.941.942v21.4A1.407,1.407,0,0,1,55.6,24.2l-2.449.593V11.87H50.376v5.49A2.3,2.3,0,0,1,48.007,19.7H39.663V3.553L38.21,3.176V2.314h4.2a.87.87,0,0,1,.888.916V8.748h3.445V2.261h2.719a.9.9,0,0,1,.915.942Zm-4.549,7.724a.924.924,0,0,0,.915-.914v-5.6H43.3v6.513ZM58.612,0h2.745a.925.925,0,0,1,.916.915V24.036a1.373,1.373,0,0,1-1.077,1.4L58.612,26Z" transform="translate(-12.966 0)" fill="#0c2b64"/>
    <path id="패스_9731" data-name="패스 9731" d="M89.482,9.663h2.773V1.669l-1.1-.3V.511h3.688a.92.92,0,0,1,.941.942v21.4A1.407,1.407,0,0,1,94.7,24.2l-2.449.593V11.87H89.482v5.49A2.3,2.3,0,0,1,87.113,19.7H78.769V3.553l-1.453-.377V2.314h4.2a.87.87,0,0,1,.888.916V8.748h3.445V2.261h2.719a.9.9,0,0,1,.915.942Zm-4.549,7.724a.924.924,0,0,0,.915-.914v-5.6H82.4v6.513ZM97.718,0h2.745a.925.925,0,0,1,.916.915V24.036a1.373,1.373,0,0,1-1.077,1.4L97.718,26Z" transform="translate(-26.237 0)" fill="#0c2b64"/>
    <path id="패스_9732" data-name="패스 9732" d="M126.565,13.107c5.275-2.1,9.663-5.571,9.663-7.966V3.715a.42.42,0,0,0-.431-.4h-8.316V1.157h10.793c1.238,0,1.749.566,1.749,1.776v2.18c0,3.5-5.518,7.241-12.462,9.878Zm4.9,12.328a2.223,2.223,0,0,1-2.207-2.234V17.038l-1.265-.431V15.8h17.2a2.027,2.027,0,0,1,2.072,2.207v7.428Zm1.992-2.152h10.013V18.356a.424.424,0,0,0-.377-.457H133.078v4.925a.444.444,0,0,0,.377.458M147.263,6.056h4.172V8.317h-4.172v4.549a1.453,1.453,0,0,1-1.157,1.453l-2.637.3V1.238L142.015.861V0h4.36a.92.92,0,0,1,.889.916Z" transform="translate(-42.949 0)" fill="#0c2b64"/>
    <path id="패스_9733" data-name="패스 9733" d="M179.693,17.522a2.285,2.285,0,0,1-2.395,2.315H166.934V2.826l-1.426-.4V1.561h4.146a.926.926,0,0,1,.941.889V8.99h5.491V1.507h2.745a.9.9,0,0,1,.861.916Zm-4.576,0a.942.942,0,0,0,.969-.941V11.089H170.6v6.433ZM187.014,0a.908.908,0,0,1,.915.915V24.036a1.445,1.445,0,0,1-1.1,1.4L184.161,26V1.264L182.68.834V0Z" transform="translate(-56.165 0)" fill="#0c2b64"/>
    <path id="패스_9734" data-name="패스 9734" d="M219.543,3.2h-5.006V5.06a7.894,7.894,0,0,1-.377,2.45l5.491,2.718A1.166,1.166,0,0,1,220.108,12l-1.4,1.857-5.625-4.333c-1.265,1.7-3.472,3.338-7,5.356L204.9,13.134c5.571-3.418,5.868-5.921,5.868-8.289V3.2H205.52V1.023h14.023ZM212.2,20.133c0-3.15,2.88-5.707,7.455-5.707s7.483,2.557,7.483,5.707c0,3.122-2.907,5.678-7.483,5.678s-7.455-2.557-7.455-5.678m3.741-.027a3.731,3.731,0,0,0,7.455,0,3.735,3.735,0,0,0-7.455,0m7.4-18.868-1.507-.4V0h4.387a.925.925,0,0,1,.916.915V12.408a1.439,1.439,0,0,1-1.238,1.4l-2.557.4V7.267h-5.06V5.356h5.06Z" transform="translate(-69.533 0)" fill="#0c2b64"/>
    <path id="패스_9735" data-name="패스 9735" d="M250.887,1.63c6.756,0,11.762,2.826,11.762,10.147,0,7.617-5.088,10.793-11.951,10.793H244.75V3.434l-1.965-.943V1.63Zm-2.315,2.341V20.147h2.476c4.683,0,7.725-2.152,7.725-8.37,0-5.087-2.611-7.806-7.51-7.806Z" transform="translate(-82.388 -0.553)" fill="#0c2b64"/>
  </g>
</svg>
